<svg width="16" height="16" viewBox="0 0 16 16" fill="none" xmlns="http://www.w3.org/2000/svg">
<path d="M15.6463 6.79995C15.0799 6.35355 14.0223 6.73435 13.1983 7.64955C12.4287 7.43515 11.7455 7.48795 11.1631 7.81595C10.0479 8.44475 9.62554 9.89115 9.46873 10.9903C9.44473 11.1599 9.42234 11.3327 9.39834 11.5055C9.14874 13.4079 8.91193 15.2063 6.65593 15.2063C6.61913 15.2063 6.58233 15.2063 6.54393 15.2047C5.90393 15.1887 5.44313 14.9903 5.13593 14.5967C4.56953 13.8703 4.66713 12.6831 4.73913 12.1903C4.96313 12.0895 5.12153 11.8687 5.12953 11.6079L5.16313 10.6335L6.35833 10.2783C6.50713 10.2335 6.62233 10.1391 6.70553 10.0223C6.91993 10.0703 7.18713 10.0591 7.37593 9.94075C7.70713 9.73435 8.19034 9.33755 8.79193 8.58715C9.44954 7.76635 9.61114 7.10555 9.62714 6.67675C9.63514 6.37115 9.42233 6.06075 9.26394 5.97435C9.10553 5.88795 9.07674 6.04955 9.10713 6.35355C9.15194 6.81115 9.07994 7.50715 8.48953 8.26395C8.47833 8.27675 8.46873 8.28635 8.45914 8.29915L8.46393 8.26555C8.60474 8.04795 8.72634 7.81915 8.81913 7.57435C9.77914 5.03195 7.70393 2.06555 7.61433 1.94075C7.59513 1.91355 7.56953 1.89595 7.54393 1.87515C7.60313 1.73915 7.58873 1.61595 7.48953 1.55195C7.33433 1.45115 7.09113 1.14875 6.95033 0.876747L6.70073 0.399947C6.56153 0.129547 6.26713 0.0815474 6.04633 0.292747L5.42713 0.894347C5.20473 1.10555 5.24793 1.39195 5.51833 1.53435L5.95513 1.75835C6.22553 1.90075 6.52153 2.15675 6.61753 2.33115C6.68953 2.46075 6.85593 2.47995 7.02713 2.39195C7.20313 2.64795 8.91193 5.24155 8.12793 7.31675C8.09593 7.40155 8.04633 7.47995 8.00473 7.56155L7.99993 7.56315C7.95193 7.55195 7.90553 7.53435 7.85593 7.53435C7.73273 7.53435 7.61753 7.57115 7.52153 7.63195L7.66713 7.77115C7.57913 7.87835 7.51993 8.00955 7.51993 8.15835C7.51993 8.19515 7.52793 8.23035 7.53433 8.26555C7.25913 8.56635 6.91513 8.83515 6.49913 9.06395C6.34553 8.97755 6.15993 8.95035 5.97913 9.00475L4.52313 9.43675L2.96473 8.94395C2.78713 8.88795 2.60153 8.91195 2.44953 8.99515C1.70713 8.55515 1.20153 7.99355 0.943934 7.31675C0.123134 5.14235 2.04153 2.39675 2.06073 2.36955C2.06233 2.36475 2.06233 2.35995 2.06713 2.35515C2.06713 2.35515 2.11193 2.39835 2.16793 2.44795C2.22393 2.50075 2.34553 2.40155 2.44153 2.22715C2.53593 2.05115 2.83513 1.79515 3.10553 1.65435L3.54073 1.42875C3.81273 1.28795 3.85433 1.00155 3.63353 0.788747L3.01273 0.188747C2.79193 -0.0240526 2.50073 0.0239474 2.35833 0.295947L2.11033 0.772747C1.96793 1.04475 1.72633 1.34555 1.57113 1.44795C1.41273 1.54715 1.34393 1.68315 1.41273 1.74715L1.53913 1.86555C1.50873 1.88635 1.48153 1.90875 1.45753 1.94075C1.36793 2.06555 -0.707266 5.03195 0.252734 7.57435C0.575934 8.42555 1.19673 9.11835 2.10553 9.64635C2.12953 9.90075 2.30393 10.1279 2.56313 10.2111L3.83513 10.6127L3.80153 11.5615C3.79673 11.7583 3.87833 11.9375 4.00953 12.0655C3.92153 12.6527 3.80473 14.0895 4.55193 15.0479C4.99833 15.6207 5.66233 15.9215 6.52633 15.9423C6.57273 15.9455 6.61753 15.9455 6.66233 15.9455C9.55993 15.9455 9.87674 13.5407 10.1311 11.6031C10.1535 11.4335 10.1759 11.2639 10.1999 11.0959C10.3887 9.77275 10.8591 8.83675 11.5263 8.46075C11.8607 8.27035 12.2623 8.21755 12.7199 8.29755C12.1455 9.24635 12.0735 10.2367 12.5967 10.6527C13.2031 11.1327 14.3775 10.6591 15.2191 9.59515C16.0607 8.53115 16.2511 7.27995 15.6463 6.79995ZM8.35353 8.42555C8.30394 8.48475 8.25434 8.54875 8.20634 8.60315C8.25434 8.54235 8.30233 8.48155 8.34714 8.41915L8.35353 8.42555ZM14.1375 8.71515C13.8223 9.11515 13.3823 9.29275 13.1551 9.11195C12.9887 8.98075 12.9839 8.69435 13.1151 8.39355C13.2351 8.43195 13.3567 8.47355 13.4815 8.52635C13.6719 8.60635 13.8863 8.51995 13.9663 8.33115C14.0463 8.14395 13.9583 7.92635 13.7695 7.84635C13.7135 7.82235 13.6607 7.80475 13.6047 7.78555C13.8623 7.59675 14.1327 7.53915 14.2943 7.66875C14.5231 7.84955 14.4511 8.31835 14.1375 8.71515Z" fill="#1D692C"/>
</svg>
