<svg width="8" height="8" viewBox="0 0 8 8" fill="none" xmlns="http://www.w3.org/2000/svg">
<path d="M7.0156 5.77026L5.2366 3.99226L7.0146 2.21426C7.3566 1.87326 7.3566 1.31826 7.0146 0.977256C6.6726 0.633256 6.1196 0.634256 5.7776 0.976256L3.9986 2.75426L2.2196 0.974256C1.8776 0.632256 1.3236 0.634256 0.981595 0.974256C0.640595 1.31626 0.640595 1.87126 0.981595 2.21226L2.7616 3.99226L0.985595 5.76726C0.643595 6.10926 0.643595 6.66426 0.985595 7.00426C1.1566 7.17626 1.3796 7.26126 1.6036 7.26126C1.8286 7.26126 2.0516 7.17626 2.2226 7.00526L3.9986 5.22926L5.7786 7.00826C5.9496 7.17926 6.1726 7.26426 6.3966 7.26426C6.6206 7.26426 6.8446 7.17826 7.0156 7.00826C7.3576 6.66626 7.3576 6.11226 7.0156 5.77026Z" fill="#200E32"/>
</svg>
